<svg width="22" height="22" viewBox="0 0 22 22" fill="none" xmlns="http://www.w3.org/2000/svg">
<path d="M13.1361 2.36144L13.8824 2.28681L13.1361 2.36144ZM12.9838 1.54161L12.3172 1.8854V1.8854L12.9838 1.54161ZM13.4311 3.81793L14.0274 3.36304L14.0274 3.36303L13.4311 3.81793ZM14.3595 4.20248L14.2595 3.45917H14.2595L14.3595 4.20248ZM15.5979 3.38113L16.0728 3.9616L16.0728 3.9616L15.5979 3.38113ZM16.2853 2.90918L16.5135 3.62361L16.2853 2.90918ZM16.9872 2.94419L17.2854 2.25602L17.2854 2.25602L16.9872 2.94419ZM17.6243 3.4822L17.094 4.01253V4.01253L17.6243 3.4822ZM18.5178 4.37567L19.0481 3.84534V3.84534L18.5178 4.37567ZM19.0558 5.01275L19.744 4.71457L19.744 4.71456L19.0558 5.01275ZM19.0908 5.71464L19.8052 5.94288L19.8052 5.94287L19.0908 5.71464ZM18.6188 6.4021L18.0384 5.92717L18.0384 5.92717L18.6188 6.4021ZM17.7975 7.64056L17.0542 7.54057V7.54058L17.7975 7.64056ZM18.182 8.56893L17.7271 9.16522V9.16522L18.182 8.56893ZM19.6385 8.86385L19.7132 8.11758L19.6385 8.86385ZM20.4584 9.01624L20.8022 8.34969L20.8022 8.34968L20.4584 9.01624ZM20.9299 9.53729L21.6274 9.26152V9.26152L20.9299 9.53729ZM20.93 12.4626L20.2325 12.1869L20.2325 12.1869L20.93 12.4626ZM20.4583 12.9838L20.8021 13.6504V13.6504L20.4583 12.9838ZM19.6386 13.1361L19.564 12.3899L19.5396 12.3923L19.5153 12.3963L19.6386 13.1361ZM19.6386 13.1361L19.7132 13.8824L19.7377 13.88L19.7619 13.8759L19.6386 13.1361ZM18.1825 13.4309L17.7278 12.8345V12.8345L18.1825 13.4309ZM17.7979 14.3596L17.0546 14.4597V14.4597L17.7979 14.3596ZM18.619 15.5976L18.0385 16.0725V16.0725L18.619 15.5976ZM19.0908 16.2848L18.3764 16.5131V16.5131L19.0908 16.2848ZM19.0558 16.9869L18.3676 16.6886L18.3676 16.6887L19.0558 16.9869ZM18.5179 17.6238L19.0483 18.1541H19.0483L18.5179 17.6238ZM17.6243 18.5174L17.094 17.987L17.094 17.987L17.6243 18.5174ZM16.9873 19.0554L17.2855 19.7435L17.2855 19.7435L16.9873 19.0554ZM16.2854 19.0904L16.0571 19.8048H16.0571L16.2854 19.0904ZM15.5979 18.6184L16.0729 18.0379L16.0664 18.0328L15.5979 18.6184ZM15.5979 18.6184L15.1229 19.1989L15.1294 19.2041L15.5979 18.6184ZM14.3595 17.7971L14.4595 17.0538H14.4595L14.3595 17.7971ZM13.4311 18.1816L14.0274 18.6365L14.0274 18.6365L13.4311 18.1816ZM13.1362 19.6383L12.3899 19.5637L13.1362 19.6383ZM12.9837 20.4585L12.3172 20.1146L12.3172 20.1146L12.9837 20.4585ZM12.4628 20.9299L12.187 20.2325H12.187L12.4628 20.9299ZM9.53729 20.9299L9.81306 20.2325L9.53729 20.9299ZM9.01624 20.4584L9.6828 20.1146V20.1146L9.01624 20.4584ZM8.86385 19.6385L8.11758 19.7132V19.7132L8.86385 19.6385ZM8.56892 18.182L7.97263 18.6369L7.97263 18.6369L8.56892 18.182ZM7.64057 17.7975L7.5406 17.0542H7.5406L7.64057 17.7975ZM6.40208 18.6189L5.92715 18.0384L5.91527 18.0481L5.9038 18.0583L6.40208 18.6189ZM6.40206 18.6189L6.87699 19.1993L6.88887 19.1896L6.90034 19.1794L6.40206 18.6189ZM5.71458 19.0908L5.9428 19.8053H5.9428L5.71458 19.0908ZM5.01272 19.0558L4.71454 19.744H4.71454L5.01272 19.0558ZM4.37561 18.5178L4.90594 17.9875H4.90594L4.37561 18.5178ZM3.48217 17.6243L2.95184 18.1547L2.95184 18.1547L3.48217 17.6243ZM2.94414 16.9873L3.63232 16.6891H3.63232L2.94414 16.9873ZM2.90913 16.2854L3.62356 16.5136L3.62356 16.5136L2.90913 16.2854ZM3.3811 15.5979L3.96157 16.0728L3.96157 16.0728L3.3811 15.5979ZM4.20247 14.3594L4.94578 14.4594L4.20247 14.3594ZM3.81792 13.4311L4.27282 12.8348L4.27282 12.8348L3.81792 13.4311ZM2.36143 13.1361L2.2868 13.8824H2.2868L2.36143 13.1361ZM1.54161 12.9838L1.8854 12.3172H1.8854L1.54161 12.9838ZM1.07005 12.4627L0.372583 12.7384L0.372583 12.7385L1.07005 12.4627ZM1.07008 9.53721L0.372647 9.26138L0.372647 9.26139L1.07008 9.53721ZM1.54152 9.01628L1.19767 8.34975L1.19766 8.34975L1.54152 9.01628ZM2.36155 8.86384V8.11384H2.32414L2.28692 8.11757L2.36155 8.86384ZM2.36156 8.86384V9.61384H2.39896L2.43619 9.61012L2.36156 8.86384ZM3.81842 8.56881L3.36344 7.97258L3.36343 7.97258L3.81842 8.56881ZM4.20287 7.64066L4.94619 7.54078V7.54078L4.20287 7.64066ZM3.38128 6.40182L3.96175 5.92689H3.96175L3.38128 6.40182ZM2.90914 5.71405L3.6236 5.48592H3.6236L2.90914 5.71405ZM2.94413 5.01243L2.25591 4.71434L2.25591 4.71434L2.94413 5.01243ZM3.48233 4.37509L4.01266 4.90542L4.01266 4.90542L3.48233 4.37509ZM4.37565 3.48177L3.84532 2.95144L4.37565 3.48177ZM5.01277 2.94373L4.71459 2.25555L4.71459 2.25555L5.01277 2.94373ZM5.71463 2.90872L5.94285 2.19429L5.94285 2.19429L5.71463 2.90872ZM6.4022 3.38076L6.87713 2.80029V2.80029L6.4022 3.38076ZM7.64044 4.20207L7.74054 3.45878V3.45878L7.64044 4.20207ZM8.56907 3.81742L7.9727 3.36261L8.56907 3.81742ZM8.86387 2.36131L9.61015 2.43593V2.43593L8.86387 2.36131ZM9.01619 1.5417L8.34959 1.19798L8.34959 1.19798L9.01619 1.5417ZM9.53741 1.07001L9.81309 1.7675L9.81309 1.7675L9.53741 1.07001ZM12.4627 1.07005L12.7385 0.372584L12.7385 0.372584L12.4627 1.07005ZM13.8824 2.28681C13.8617 2.07989 13.8429 1.88819 13.8161 1.7282C13.788 1.56083 13.744 1.37935 13.6503 1.19782L12.3172 1.8854C12.3109 1.87319 12.3214 1.88479 12.3368 1.97658C12.3534 2.07575 12.3672 2.20932 12.3899 2.43607L13.8824 2.28681ZM14.0274 3.36303C14.0533 3.39708 14.0249 3.38487 13.9881 3.18023C13.9526 2.98276 13.9247 2.70983 13.8824 2.28681L12.3899 2.43607C12.4297 2.83391 12.4634 3.17663 12.5118 3.44589C12.559 3.70798 12.637 4.01358 12.8348 4.27282L14.0274 3.36303ZM14.2595 3.45917C14.1704 3.47115 14.0818 3.43445 14.0274 3.36304L12.8348 4.27281C13.2161 4.77271 13.8363 5.02961 14.4594 4.94578L14.2595 3.45917ZM15.1229 2.80066C14.7939 3.06987 14.5812 3.24316 14.4165 3.35767C14.2457 3.47633 14.217 3.46488 14.2595 3.45917L14.4594 4.94578C14.7826 4.90231 15.0538 4.74139 15.2725 4.58941C15.4972 4.43328 15.7634 4.21478 16.0728 3.9616L15.1229 2.80066ZM16.0571 2.19476C15.8625 2.25691 15.7031 2.3541 15.5648 2.45258C15.4327 2.54672 15.2839 2.66898 15.1229 2.80066L16.0728 3.9616C16.2492 3.8173 16.3533 3.73258 16.4352 3.67423C16.511 3.62022 16.5266 3.61943 16.5135 3.62361L16.0571 2.19476ZM17.2854 2.25602C16.8969 2.08766 16.4604 2.06589 16.0571 2.19476L16.5135 3.62361C16.5712 3.6052 16.6335 3.60831 16.689 3.63236L17.2854 2.25602ZM18.1546 2.95187C18.0076 2.80483 17.8717 2.66836 17.7496 2.56154C17.6218 2.4498 17.4728 2.33723 17.2854 2.25602L16.689 3.63236C16.6764 3.6269 16.6919 3.62924 16.7619 3.69053C16.8376 3.75673 16.9328 3.8514 17.094 4.01253L18.1546 2.95187ZM19.0481 3.84534L18.1546 2.95187L17.094 4.01253L17.9874 4.906L19.0481 3.84534ZM19.744 4.71456C19.6627 4.52714 19.5502 4.37815 19.4384 4.25041C19.3316 4.12831 19.1951 3.99239 19.0481 3.84534L17.9874 4.906C18.1486 5.06713 18.2432 5.16235 18.3094 5.23804C18.3707 5.30809 18.3731 5.32355 18.3676 5.31094L19.744 4.71456ZM19.8052 5.94287C19.9341 5.53951 19.9123 5.10311 19.744 4.71457L18.3676 5.31094C18.3917 5.36644 18.3948 5.42879 18.3764 5.48642L19.8052 5.94287ZM19.1993 6.87703C19.331 6.71608 19.4532 6.56725 19.5474 6.43512C19.6459 6.2969 19.7431 6.13745 19.8052 5.94288L18.3764 5.48641C18.3805 5.47332 18.3797 5.48893 18.3257 5.56474C18.2674 5.64664 18.1827 5.7508 18.0384 5.92717L19.1993 6.87703ZM18.5408 7.74054C18.5351 7.78298 18.5236 7.75426 18.6423 7.58352C18.7568 7.41875 18.9301 7.20607 19.1993 6.87703L18.0384 5.92717C17.7852 6.23663 17.5667 6.50282 17.4105 6.72748C17.2585 6.94616 17.0976 7.21742 17.0542 7.54057L18.5408 7.74054ZM18.6369 7.97263C18.5655 7.91815 18.5288 7.82956 18.5408 7.74054L17.0542 7.54058C16.9703 8.16369 17.2272 8.78388 17.7271 9.16522L18.6369 7.97263ZM19.7132 8.11758C19.2901 8.07527 19.0172 8.04742 18.8197 8.01189C18.6151 7.97506 18.6029 7.94666 18.6369 7.97263L17.7271 9.16522C17.9863 9.36299 18.292 9.44101 18.5541 9.48817C18.8233 9.53663 19.166 9.57035 19.5639 9.61013L19.7132 8.11758ZM20.8022 8.34968C20.6207 8.25605 20.4392 8.21202 20.2718 8.18392C20.1118 8.15705 19.9201 8.13827 19.7132 8.11758L19.5639 9.61013C19.7907 9.63281 19.9242 9.64655 20.0234 9.66321C20.1152 9.67862 20.1268 9.6891 20.1146 9.6828L20.8022 8.34968ZM21.6274 9.26152C21.4717 8.86775 21.1785 8.54379 20.8022 8.34969L20.1146 9.6828C20.1684 9.71053 20.2102 9.75681 20.2325 9.81306L21.6274 9.26152ZM21.75 10.3682C21.75 10.1603 21.7504 9.96766 21.7396 9.80578C21.7283 9.63644 21.7025 9.45148 21.6274 9.26152L20.2325 9.81306C20.2274 9.80028 20.2367 9.81287 20.2429 9.90574C20.2496 10.0061 20.25 10.1404 20.25 10.3682H21.75ZM21.75 11.6319V10.3682H20.25V11.6319H21.75ZM21.6275 12.7383C21.7025 12.5484 21.7283 12.3635 21.7396 12.1942C21.7504 12.0324 21.75 11.8398 21.75 11.6319H20.25C20.25 11.8597 20.2496 11.9939 20.2429 12.0943C20.2367 12.1871 20.2274 12.1997 20.2325 12.1869L21.6275 12.7383ZM20.8021 13.6504C21.1785 13.4563 21.4718 13.1322 21.6275 12.7383L20.2325 12.1869C20.2103 12.2432 20.1684 12.2895 20.1146 12.3172L20.8021 13.6504ZM19.7133 13.8824C19.9201 13.8617 20.1118 13.8429 20.2718 13.8161C20.4391 13.788 20.6205 13.744 20.8021 13.6504L20.1146 12.3172C20.1268 12.3109 20.1152 12.3214 20.0234 12.3368C19.9243 12.3534 19.7907 12.3672 19.564 12.3899L19.7133 13.8824ZM19.7619 13.8759L19.7619 13.8759L19.5153 12.3963L19.5153 12.3963L19.7619 13.8759ZM18.6373 14.0273C18.6033 14.0533 18.6155 14.0249 18.8201 13.9881C19.0175 13.9525 19.2903 13.9247 19.7132 13.8824L19.564 12.3899C19.1663 12.4296 18.8236 12.4633 18.5545 12.5118C18.2925 12.5589 17.9869 12.6369 17.7278 12.8345L18.6373 14.0273ZM18.5412 14.2595C18.5292 14.1704 18.5659 14.0818 18.6373 14.0273L17.7278 12.8345C17.2276 13.2159 16.9706 13.8364 17.0546 14.4597L18.5412 14.2595ZM19.1994 15.1227C18.9303 14.7937 18.7571 14.5811 18.6426 14.4164C18.524 14.2458 18.5354 14.2171 18.5412 14.2595L17.0546 14.4597C17.0981 14.7828 17.259 15.0539 17.4109 15.2725C17.567 15.4971 17.7854 15.7632 18.0385 16.0725L19.1994 15.1227ZM19.8052 16.0565C19.743 15.862 19.6459 15.7026 19.5474 15.5644C19.4533 15.4323 19.3311 15.2835 19.1994 15.1227L18.0385 16.0725C18.1828 16.2488 18.2675 16.3529 18.3258 16.4348C18.3798 16.5106 18.3806 16.5262 18.3764 16.5131L19.8052 16.0565ZM19.7439 17.2852C19.9124 16.8965 19.9342 16.46 19.8052 16.0565L18.3764 16.5131C18.3948 16.5708 18.3917 16.6331 18.3676 16.6886L19.7439 17.2852ZM19.0483 18.1541C19.1952 18.0071 19.3317 17.8712 19.4384 17.7492C19.5502 17.6215 19.6627 17.4726 19.7439 17.2852L18.3676 16.6887C18.3731 16.676 18.3708 16.6915 18.3095 16.7615C18.2433 16.8372 18.1487 16.9324 17.9876 17.0934L19.0483 18.1541ZM18.1547 19.0477L19.0483 18.1541L17.9876 17.0934L17.094 17.987L18.1547 19.0477ZM17.2855 19.7435C17.4729 19.6623 17.6219 19.5498 17.7496 19.438C17.8717 19.3312 18.0076 19.1947 18.1547 19.0477L17.094 17.987C16.9329 18.1482 16.8377 18.2428 16.762 18.309C16.6919 18.3703 16.6765 18.3727 16.6891 18.3672L17.2855 19.7435ZM16.0571 19.8048C16.4605 19.9337 16.8969 19.9119 17.2855 19.7435L16.6891 18.3672C16.6336 18.3912 16.5712 18.3944 16.5136 18.3759L16.0571 19.8048ZM15.123 19.1989C15.2839 19.3306 15.4328 19.4528 15.5649 19.547C15.7031 19.6455 15.8626 19.7426 16.0571 19.8048L16.5136 18.3759C16.5267 18.3801 16.5111 18.3793 16.4353 18.3253C16.3534 18.267 16.2492 18.1823 16.0728 18.038L15.123 19.1989ZM15.1294 19.2041L15.1294 19.2041L16.0664 18.0328L16.0664 18.0328L15.1294 19.2041ZM14.2595 18.5404C14.2171 18.5347 14.2458 18.5232 14.4165 18.6419C14.5813 18.7564 14.794 18.9297 15.123 19.1989L16.0728 18.0379C15.7634 17.7848 15.4972 17.5663 15.2726 17.4101C15.0539 17.2582 14.7826 17.0972 14.4595 17.0538L14.2595 18.5404ZM14.0274 18.6365C14.0819 18.5651 14.1705 18.5284 14.2595 18.5404L14.4595 17.0538C13.8364 16.9699 13.2161 17.2268 12.8348 17.7267L14.0274 18.6365ZM13.8824 19.7129C13.9248 19.2899 13.9526 19.0169 13.9881 18.8194C14.025 18.6147 14.0534 18.6025 14.0274 18.6365L12.8348 17.7267C12.637 17.986 12.559 18.2916 12.5119 18.5537C12.4634 18.823 12.4297 19.1658 12.3899 19.5637L13.8824 19.7129ZM13.6502 20.8024C13.7439 20.6208 13.788 20.4392 13.8161 20.2718C13.843 20.1117 13.8617 19.92 13.8824 19.7129L12.3899 19.5637C12.3672 19.7905 12.3535 19.9242 12.3368 20.0234C12.3214 20.1152 12.3109 20.1269 12.3172 20.1146L13.6502 20.8024ZM12.7386 21.6273C13.1323 21.4717 13.4562 21.1786 13.6502 20.8024L12.3172 20.1146C12.2895 20.1684 12.2432 20.2102 12.187 20.2325L12.7386 21.6273ZM11.6316 21.75C11.8397 21.75 12.0323 21.7504 12.1942 21.7396C12.3636 21.7283 12.5486 21.7025 12.7386 21.6273L12.187 20.2325C12.1997 20.2274 12.1872 20.2367 12.0943 20.2429C11.9939 20.2496 11.8596 20.25 11.6316 20.25V21.75ZM10.3682 21.75H11.6316V20.25H10.3682V21.75ZM9.26152 21.6274C9.45148 21.7025 9.63644 21.7283 9.80578 21.7396C9.96766 21.7504 10.1603 21.75 10.3682 21.75V20.25C10.1404 20.25 10.0061 20.2496 9.90574 20.2429C9.81287 20.2367 9.80028 20.2274 9.81306 20.2325L9.26152 21.6274ZM8.34968 20.8022C8.54379 21.1785 8.86775 21.4717 9.26152 21.6274L9.81306 20.2325C9.75681 20.2102 9.71053 20.1684 9.6828 20.1146L8.34968 20.8022ZM8.11758 19.7132C8.13827 19.9201 8.15705 20.1118 8.18392 20.2718C8.21202 20.4392 8.25605 20.6207 8.34968 20.8022L9.6828 20.1146C9.6891 20.1268 9.67862 20.1152 9.66321 20.0234C9.64655 19.9242 9.63281 19.7907 9.61013 19.5639L8.11758 19.7132ZM7.97263 18.6369C7.94666 18.6029 7.97506 18.6151 8.01189 18.8197C8.04742 19.0172 8.07527 19.2901 8.11758 19.7132L9.61013 19.5639C9.57035 19.1661 9.53663 18.8233 9.48817 18.5541C9.441 18.2919 9.36298 17.9863 9.1652 17.7271L7.97263 18.6369ZM7.74054 18.5408C7.82956 18.5288 7.91815 18.5655 7.97263 18.6369L9.16521 17.7271C8.78387 17.2272 8.1637 16.9704 7.5406 17.0542L7.74054 18.5408ZM6.877 19.1993C7.20605 18.9301 7.41875 18.7568 7.58352 18.6423C7.75426 18.5236 7.78298 18.5351 7.74054 18.5408L7.5406 17.0542C7.21744 17.0976 6.94617 17.2586 6.72748 17.4105C6.50281 17.5667 6.23661 17.7852 5.92715 18.0384L6.877 19.1993ZM6.90034 19.1794L6.90035 19.1794L5.9038 18.0583L5.90379 18.0583L6.90034 19.1794ZM5.9428 19.8053C6.13738 19.7431 6.29684 19.6459 6.43507 19.5474C6.5672 19.4533 6.71604 19.331 6.87699 19.1993L5.92714 18.0384C5.75076 18.1827 5.6466 18.2674 5.56469 18.3258C5.48888 18.3798 5.47327 18.3806 5.48636 18.3764L5.9428 19.8053ZM4.71454 19.744C5.10307 19.9124 5.53946 19.9341 5.9428 19.8053L5.48636 18.3764C5.42874 18.3948 5.3664 18.3917 5.3109 18.3677L4.71454 19.744ZM3.84528 19.0481C3.99233 19.1952 4.12826 19.3316 4.25037 19.4385C4.37811 19.5502 4.52711 19.6628 4.71454 19.744L5.3109 18.3677C5.32351 18.3731 5.30805 18.3708 5.23799 18.3095C5.1623 18.2433 5.06708 18.1486 4.90594 17.9875L3.84528 19.0481ZM2.95184 18.1547L3.84528 19.0481L4.90594 17.9875L4.0125 17.094L2.95184 18.1547ZM2.25596 17.2854C2.33717 17.4729 2.44975 17.6219 2.56149 17.7496C2.66831 17.8717 2.80479 18.0076 2.95184 18.1547L4.0125 17.094C3.85136 16.9329 3.75669 16.8377 3.69048 16.762C3.62919 16.6919 3.62685 16.6765 3.63232 16.6891L2.25596 17.2854ZM2.1947 16.0571C2.06585 16.4605 2.08761 16.8969 2.25596 17.2854L3.63232 16.6891C3.60827 16.6336 3.60516 16.5712 3.62356 16.5136L2.1947 16.0571ZM2.80064 15.123C2.66895 15.2839 2.54667 15.4328 2.45253 15.5649C2.35405 15.7031 2.25686 15.8626 2.1947 16.0571L3.62356 16.5136C3.61938 16.5267 3.62017 16.5111 3.67419 16.4353C3.73254 16.3534 3.81726 16.2492 3.96157 16.0728L2.80064 15.123ZM3.45917 14.2595C3.46488 14.217 3.47632 14.2457 3.35766 14.4165C3.24315 14.5812 3.06985 14.7939 2.80064 15.123L3.96157 16.0728C4.21476 15.7634 4.43327 15.4972 4.5894 15.2725C4.74138 15.0538 4.90231 14.7826 4.94578 14.4594L3.45917 14.2595ZM3.36303 14.0274C3.43444 14.0818 3.47114 14.1704 3.45917 14.2595L4.94578 14.4594C5.0296 13.8363 4.7727 13.2161 4.27282 12.8348L3.36303 14.0274ZM2.2868 13.8824C2.70983 13.9247 2.98275 13.9526 3.18022 13.9881C3.38486 14.0249 3.39707 14.0533 3.36303 14.0274L4.27282 12.8348C4.01358 12.637 3.70798 12.559 3.44589 12.5118C3.17663 12.4634 2.8339 12.4296 2.43606 12.3899L2.2868 13.8824ZM1.19782 13.6503C1.37936 13.744 1.56083 13.788 1.7282 13.8161C1.88819 13.8429 2.07988 13.8617 2.2868 13.8824L2.43606 12.3899C2.20931 12.3672 2.07575 12.3534 1.97658 12.3368C1.88479 12.3214 1.87319 12.3109 1.8854 12.3172L1.19782 13.6503ZM0.372583 12.7385C0.528277 13.1322 0.821475 13.4562 1.19782 13.6503L1.8854 12.3172C1.83164 12.2895 1.78975 12.2432 1.76751 12.1869L0.372583 12.7385ZM0.25 11.6318C0.25 11.8397 0.249612 12.0323 0.260423 12.1942C0.271732 12.3635 0.297482 12.5485 0.372583 12.7384L1.76751 12.1869C1.77257 12.1997 1.76329 12.1871 1.75709 12.0943C1.75039 11.9939 1.75 11.8597 1.75 11.6318H0.25ZM0.25 10.3683V11.6318H1.75V10.3683H0.25ZM0.372647 9.26139C0.297507 9.45138 0.271744 9.63638 0.260428 9.80576C0.249612 9.96768 0.25 10.1603 0.25 10.3683H1.75C1.75 10.1404 1.75039 10.0061 1.75709 9.90574C1.7633 9.81285 1.77258 9.80026 1.76752 9.81304L0.372647 9.26139ZM1.19766 8.34975C0.821446 8.54384 0.528337 8.86772 0.372647 9.26138L1.76752 9.81304C1.78976 9.75681 1.83164 9.71054 1.88538 9.68281L1.19766 8.34975ZM2.28692 8.11757C2.07995 8.13826 1.88821 8.15705 1.72817 8.18392C1.56076 8.21204 1.37924 8.25608 1.19767 8.34975L1.88538 9.68281C1.87316 9.68911 1.88477 9.67863 1.97658 9.66321C2.07578 9.64655 2.20937 9.6328 2.43618 9.61012L2.28692 8.11757ZM2.36155 8.11384H2.36155V9.61384H2.36155V8.11384ZM2.36156 8.11384H2.36155V9.61384H2.36156V8.11384ZM3.36343 7.97258C3.39748 7.9466 3.38527 7.97501 3.18059 8.01185C2.98306 8.0474 2.71006 8.07525 2.28693 8.11757L2.43619 9.61012C2.83414 9.57033 3.17695 9.5366 3.44628 9.48813C3.70844 9.44094 4.01412 9.36289 4.2734 9.16504L3.36343 7.97258ZM3.45955 7.74054C3.47151 7.82954 3.43482 7.91811 3.36344 7.97258L4.2734 9.16504C4.77308 8.78373 5.02989 8.16374 4.94619 7.54078L3.45955 7.74054ZM2.80081 6.87675C3.07011 7.20589 3.24347 7.41865 3.35801 7.58347C3.47671 7.75427 3.46525 7.78299 3.45955 7.74054L4.94619 7.54078C4.90275 7.21754 4.74179 6.94619 4.58977 6.72745C4.43359 6.50272 4.21502 6.23645 3.96175 5.92689L2.80081 6.87675ZM2.19467 5.94218C2.25683 6.13684 2.35405 6.29637 2.45257 6.43465C2.54674 6.56683 2.66906 6.71572 2.80081 6.87675L3.96175 5.92689C3.81738 5.75044 3.73261 5.64623 3.67424 5.56429C3.6202 5.48844 3.61942 5.47282 3.6236 5.48592L2.19467 5.94218ZM2.25591 4.71434C2.08768 5.10275 2.06593 5.53896 2.19467 5.94218L3.6236 5.48592C3.60521 5.42832 3.60831 5.36601 3.63235 5.31052L2.25591 4.71434ZM2.952 3.84476C2.8049 3.99186 2.66838 4.12784 2.56152 4.24999C2.44974 4.37778 2.33713 4.52684 2.25591 4.71434L3.63235 5.31052C3.62688 5.32314 3.62922 5.30767 3.69053 5.23759C3.75676 5.16187 3.85147 5.06662 4.01266 4.90542L2.952 3.84476ZM3.84532 2.95144L2.952 3.84476L4.01266 4.90542L4.90598 4.0121L3.84532 2.95144ZM3.84533 2.95144L3.84532 2.95144L4.90598 4.0121L4.90599 4.0121L3.84533 2.95144ZM4.71459 2.25555C4.52716 2.33676 4.37816 2.44934 4.25042 2.56109C4.12831 2.66791 3.99238 2.80438 3.84533 2.95144L4.90599 4.0121C5.06713 3.85095 5.16235 3.75628 5.23804 3.69007C5.3081 3.62878 5.32356 3.62644 5.31094 3.63191L4.71459 2.25555ZM5.94285 2.19429C5.5395 2.06544 5.10312 2.08721 4.71459 2.25555L5.31094 3.63191C5.36645 3.60786 5.42879 3.60475 5.48641 3.62316L5.94285 2.19429ZM6.87713 2.80029C6.71614 2.66858 6.56729 2.54629 6.43514 2.45214C6.29691 2.35366 6.13744 2.25645 5.94285 2.19429L5.48641 3.62316C5.4733 3.61897 5.48892 3.61976 5.56476 3.67379C5.64668 3.73216 5.75087 3.8169 5.92727 3.96123L6.87713 2.80029ZM7.74054 3.45878C7.78298 3.46449 7.75427 3.47593 7.58353 3.35726C7.41879 3.24276 7.20612 3.06947 6.87713 2.80029L5.92727 3.96123C6.23669 4.21439 6.50284 4.43286 6.72745 4.58898C6.94608 4.74093 7.21728 4.90185 7.54034 4.94536L7.74054 3.45878ZM7.9727 3.36261C7.91822 3.43406 7.82959 3.47077 7.74054 3.45878L7.54034 4.94536C8.16364 5.0293 8.78405 4.77232 9.16543 4.27222L7.9727 3.36261ZM8.11759 2.28668C8.0753 2.70958 8.04746 2.98243 8.01194 3.17985C7.97513 3.38444 7.94674 3.39665 7.9727 3.36261L9.16543 4.27222C9.3631 4.01303 9.44108 3.70751 9.48823 3.44549C9.53667 3.1763 9.57037 2.83367 9.61015 2.43593L8.11759 2.28668ZM8.34959 1.19798C8.256 1.37948 8.212 1.5609 8.18391 1.72823C8.15705 1.88818 8.13828 2.07981 8.11759 2.28668L9.61015 2.43593C9.63282 2.20925 9.64656 2.07573 9.6632 1.97658C9.67861 1.88481 9.68909 1.87321 9.68279 1.88543L8.34959 1.19798ZM9.26172 0.372516C8.86779 0.528216 8.54371 0.821507 8.34959 1.19798L9.68279 1.88543C9.71052 1.83164 9.75682 1.78975 9.81309 1.7675L9.26172 0.372516ZM10.3681 0.25C10.1602 0.25 9.96764 0.249612 9.80582 0.260417C9.63653 0.27172 9.45162 0.297456 9.26172 0.372516L9.81309 1.7675C9.80031 1.77255 9.8129 1.76328 9.90574 1.75708C10.0061 1.75039 10.1403 1.75 10.3681 1.75V0.25ZM11.6318 0.25H10.3681V1.75H11.6318V0.25ZM12.7385 0.372584C12.5485 0.297482 12.3635 0.271732 12.1942 0.260423C12.0323 0.249612 11.8397 0.25 11.6318 0.25V1.75C11.8597 1.75 11.9939 1.75039 12.0943 1.75709C12.1871 1.76329 12.1997 1.77257 12.1869 1.76751L12.7385 0.372584ZM13.6503 1.19782C13.4562 0.821476 13.1322 0.528278 12.7385 0.372584L12.1869 1.76751C12.2432 1.78975 12.2895 1.83164 12.3172 1.8854L13.6503 1.19782ZM14.25 11C14.25 12.7949 12.7949 14.25 11 14.25V15.75C13.6234 15.75 15.75 13.6234 15.75 11H14.25ZM11 7.75C12.7949 7.75 14.25 9.20507 14.25 11H15.75C15.75 8.37665 13.6234 6.25 11 6.25V7.75ZM7.75 11C7.75 9.20507 9.20507 7.75 11 7.75V6.25C8.37665 6.25 6.25 8.37665 6.25 11H7.75ZM11 14.25C9.20507 14.25 7.75 12.7949 7.75 11H6.25C6.25 13.6234 8.37665 15.75 11 15.75V14.25Z" fill="#33CC99"/>
</svg>
