<svg width="22" height="22" viewBox="0 0 22 22" fill="none" xmlns="http://www.w3.org/2000/svg">
<g clip-path="url(#clip0_209_1766)">
<path d="M21.1063 6.70314L18.2876 3.88439L18.1845 3.78126C17.9782 3.64376 17.772 3.57501 17.5657 3.57501L13.1313 3.95314C9.79696 1.16876 5.60321 -0.0343608 2.06259 0.928139C1.51259 1.06564 1.06571 1.51251 0.928214 2.06251C-0.0342858 5.56876 1.16884 9.79689 3.98759 13.0969L3.60946 17.4625V17.5313C3.60946 17.7375 3.67821 17.9781 3.81571 18.15L6.73759 21.1063C6.94384 21.3125 7.18446 21.4156 7.45946 21.4156C7.56259 21.4156 7.66571 21.4156 7.73446 21.3813C8.07821 21.2781 8.35321 20.9688 8.45634 20.625L8.86884 16.9469C9.35009 17.1875 9.83134 17.3938 10.3126 17.5656C10.4845 17.6344 10.6563 17.6688 10.8282 17.6688C11.2751 17.6688 11.6876 17.4969 11.997 17.1875L17.1188 12.0656C17.5657 11.6188 17.7376 10.9313 17.5313 10.3469C17.3595 9.86564 17.1532 9.38439 16.9126 8.90314L20.522 8.49064H20.5907C20.9688 8.42189 21.2438 8.14689 21.347 7.76876C21.4501 7.35626 21.3813 6.97814 21.1063 6.70314ZM7.01259 19.25L5.15634 17.3594L5.39696 14.575C6.01571 15.125 6.66884 15.6406 7.35634 16.0875L7.01259 19.25ZM16.0188 10.9313L10.9313 16.0188C10.897 16.0531 10.8626 16.0531 10.8282 16.0531C9.04071 15.4344 7.32196 14.3344 5.91259 12.925C2.88759 9.86564 1.51259 5.77501 2.40634 2.47501C2.44071 2.44064 2.44071 2.40626 2.47509 2.40626C3.16259 2.23439 3.85009 2.13126 4.57196 2.13126C7.42509 2.13126 10.5188 3.47189 12.8907 5.87814C14.3001 7.28751 15.4001 9.00626 16.0188 10.7938C16.0532 10.8625 16.0532 10.8969 16.0188 10.9313ZM16.0876 7.39064C15.6407 6.70314 15.1251 6.01564 14.5751 5.39689L17.3595 5.15626L19.2157 7.01251L16.0876 7.39064Z" fill="#33CC99"/>
<path d="M19.0094 13.8188C18.9062 13.75 18.5281 13.5781 18.1156 13.9219C17.7719 14.1969 16.1562 15.8125 15.8469 16.1219C13.6469 18.3219 13.6469 18.3219 13.7844 18.8031C13.8187 18.9406 13.8875 19.0781 13.9906 19.1469C15.0906 20.2469 16.775 20.4875 18.0469 20.4875C19.0094 20.4875 19.7312 20.35 19.8 20.3156C20.1094 20.2469 20.35 20.0063 20.4187 19.6969C20.4531 19.525 21.175 15.8469 19.2156 13.8875C19.1125 13.8875 19.0437 13.8531 19.0094 13.8188ZM18.9406 18.9406C18.0469 19.0438 16.6719 19.0438 15.6406 18.5281C16.3969 17.7719 17.7375 16.3969 18.4937 15.675C19.0094 16.6375 19.0094 18.0469 18.9406 18.9406Z" fill="#33CC99"/>
<path d="M8.97202 6.11865C7.39077 6.11865 6.1189 7.39053 6.1189 8.97178C6.1189 10.553 7.39077 11.8249 8.97202 11.8249C10.5533 11.8249 11.8251 10.553 11.8251 8.97178C11.8251 7.39053 10.5533 6.11865 8.97202 6.11865ZM8.97202 10.3124C8.25015 10.3124 7.66577 9.72803 7.66577 9.00615C7.66577 8.28428 8.25015 7.6999 8.97202 7.6999C9.6939 7.6999 10.3126 8.2499 10.3126 8.97178C10.3126 9.69365 9.6939 10.3124 8.97202 10.3124Z" fill="#33CC99"/>
</g>
<defs>
<clipPath id="clip0_209_1766">
<rect width="22" height="22" fill="white"/>
</clipPath>
</defs>
</svg>
