<svg width="43" height="40" viewBox="0 0 43 40" fill="none" xmlns="http://www.w3.org/2000/svg">
<g clip-path="url(#clip0_133_595)">
<path d="M32.8705 20.7046C31.6345 20.7046 30.4535 20.9419 29.3663 21.369L27.2612 17.7161C29.4642 15.9463 30.8787 13.2301 30.8787 10.1877C30.8792 4.86829 26.5591 0 21.2497 0C15.9403 0 11.6202 4.86829 11.6202 10.1877C11.6202 13.2301 13.0347 15.9469 15.2382 17.7161L13.1331 21.369C12.0465 20.9419 10.8655 20.7051 9.62895 20.7051C4.31952 20.7046 0 25.0328 0 30.3523C0 35.6717 4.31952 40 9.62952 40C14.4469 40 18.4488 36.4376 19.1497 31.8038H23.3508C24.0518 36.4371 28.0537 40 32.8711 40C38.1805 40 42.5006 35.6723 42.5006 30.3523C42.5006 25.0322 38.181 20.7046 32.8711 20.7046H32.8705ZM14.5184 10.1877C14.5184 6.46889 17.5384 3.44369 21.2497 3.44369C24.961 3.44369 27.9811 6.46946 27.9811 10.1877C27.9811 13.906 24.9616 16.9318 21.2497 16.9318C17.5379 16.9318 14.5184 13.906 14.5184 10.1877ZM9.62952 37.0963C5.91767 37.0963 2.89818 34.0706 2.89818 30.3523C2.89818 26.634 5.91767 23.6082 9.62952 23.6082C13.3414 23.6082 16.3609 26.6334 16.3609 30.3523C16.3609 34.0711 13.3408 37.0963 9.62952 37.0963ZM23.3508 28.9002H19.1497C18.7795 26.4528 17.4869 24.3059 15.641 22.8234L17.7461 19.1705C18.8328 19.5976 20.0138 19.8343 21.2503 19.8343C22.4868 19.8343 23.6678 19.597 24.7544 19.1699L26.8595 22.8228C25.0136 24.3053 23.721 26.4523 23.3508 28.8996V28.9002ZM32.8711 37.0963C29.1592 37.0963 26.1397 34.0706 26.1397 30.3523C26.1397 26.634 29.1592 23.6082 32.8711 23.6082C36.5829 23.6082 39.6024 26.6334 39.6024 30.3523C39.6024 34.0711 36.5823 37.0963 32.8711 37.0963Z" fill="url(#paint0_radial_133_595)"/>
<path d="M9.62944 33.3064C11.2579 33.3064 12.578 31.9838 12.578 30.3523C12.578 28.7208 11.2579 27.3982 9.62944 27.3982C8.00101 27.3982 6.68091 28.7208 6.68091 30.3523C6.68091 31.9838 8.00101 33.3064 9.62944 33.3064Z" fill="url(#paint1_radial_133_595)"/>
<path d="M32.8704 33.3064C34.4988 33.3064 35.8189 31.9838 35.8189 30.3523C35.8189 28.7208 34.4988 27.3982 32.8704 27.3982C31.242 27.3982 29.9219 28.7208 29.9219 30.3523C29.9219 31.9838 31.242 33.3064 32.8704 33.3064Z" fill="url(#paint2_radial_133_595)"/>
<path d="M21.2498 13.143C22.8782 13.143 24.1983 11.8204 24.1983 10.1888C24.1983 8.55734 22.8782 7.23474 21.2498 7.23474C19.6214 7.23474 18.3013 8.55734 18.3013 10.1888C18.3013 11.8204 19.6214 13.143 21.2498 13.143Z" fill="url(#paint3_radial_133_595)"/>
</g>
<defs>
<radialGradient id="paint0_radial_133_595" cx="0" cy="0" r="1" gradientUnits="userSpaceOnUse" gradientTransform="translate(21.2497 20) scale(20.6163 20.6553)">
<stop stop-color="#33CC99"/>
<stop offset="0.79" stop-color="#33CC99"/>
</radialGradient>
<radialGradient id="paint1_radial_133_595" cx="0" cy="0" r="1" gradientUnits="userSpaceOnUse" gradientTransform="translate(9.62944 30.3523) scale(2.94854 2.95411)">
<stop stop-color="#33CC99"/>
<stop offset="0.79" stop-color="#33CC99"/>
</radialGradient>
<radialGradient id="paint2_radial_133_595" cx="0" cy="0" r="1" gradientUnits="userSpaceOnUse" gradientTransform="translate(32.8704 30.3523) scale(2.94854 2.95411)">
<stop stop-color="#33CC99"/>
<stop offset="0.79" stop-color="#33CC99"/>
</radialGradient>
<radialGradient id="paint3_radial_133_595" cx="0" cy="0" r="1" gradientUnits="userSpaceOnUse" gradientTransform="translate(21.2498 10.1888) scale(2.94854 2.95411)">
<stop stop-color="#33CC99"/>
<stop offset="0.79" stop-color="#33CC99"/>
</radialGradient>
<clipPath id="clip0_133_595">
<rect width="42.5" height="40" fill="white"/>
</clipPath>
</defs>
</svg>
