<svg width="24" height="24" viewBox="0 0 24 24" fill="none" xmlns="http://www.w3.org/2000/svg">
<path d="M2 12L1.41435 11.5315L1.03953 12L1.41435 12.4685L2 12ZM11 12.75C11.4142 12.75 11.75 12.4142 11.75 12C11.75 11.5858 11.4142 11.25 11 11.25V12.75ZM5.41435 6.53148L1.41435 11.5315L2.58565 12.4685L6.58565 7.46852L5.41435 6.53148ZM1.41435 12.4685L5.41435 17.4685L6.58565 16.5315L2.58565 11.5315L1.41435 12.4685ZM2 12.75H11V11.25H2V12.75Z" fill="#33CC99"/>
<path d="M10 8.13193V7.38851C10 5.77017 10 4.961 10.474 4.4015C10.9479 3.84201 11.7461 3.70899 13.3424 3.44293L15.0136 3.1644C18.2567 2.62388 19.8782 2.35363 20.9391 3.25232C22 4.15102 22 5.79493 22 9.08276V14.9172C22 18.2051 22 19.849 20.9391 20.7477C19.8782 21.6464 18.2567 21.3761 15.0136 20.8356L13.3424 20.5571C11.7461 20.291 10.9479 20.158 10.474 19.5985C10 19.039 10 18.2298 10 16.6115V16.066" stroke="#33CC99" stroke-width="1.5"/>
</svg>
