<?xml version="1.0" encoding="UTF-8"?>
<!DOCTYPE svg PUBLIC "-//W3C//DTD SVG 1.1//EN" "http://www.w3.org/Graphics/SVG/1.1/DTD/svg11.dtd">
<!-- Creator: CorelDRAW X5 -->
<svg xmlns="http://www.w3.org/2000/svg" xml:space="preserve" width="135.467mm" height="35.6446mm"
    style="shape-rendering:geometricPrecision; text-rendering:geometricPrecision; image-rendering:optimizeQuality; fill-rule:evenodd; clip-rule:evenodd"
    viewBox="0 0 13547 3564">
 <defs>
  <style type="text/css">
   <![CDATA[
    .fil0 {fill:black;fill-rule:nonzero}
   ]]>
  </style>
 </defs>
 <g id="Layer_x0020_1">
  <metadata id="CorelCorpID_0Corel-Layer"/>
 </g>
 <g id="Layer_x0020_1_0">
  <metadata id="CorelCorpID_1Corel-Layer"/>
  <g id="_646238088">
   <path class="fil0" d="M6782 744l0 2080c0,16 -12,32 -32,32l-218 0c-99,0 -194,-52 -250,-135l-982 -1517 32 757 0 868c0,16 -12,32 -32,32l-285 0c-16,0 -32,-12 -32,-32l0 -2084c0,-16 12,-32 32,-32l214 0c99,0 194,51 250,135l982 1513 -32 -757 0 -860c0,-16 12,-32 32,-32l285 0c24,0 36,12 36,32z"/>
   <path class="fil0" d="M9705 2852l-301 0c-20,0 -36,-20 -28,-40l800 -2072c8,-16 24,-28 40,-28l380 0c20,0 36,12 40,28l804 2072c8,20 -8,40 -28,40l-301 0c-12,0 -24,-8 -28,-20l-646 -1703c-8,-24 -47,-24 -55,0l-646 1703c-8,12 -20,20 -32,20z"/>
   <path class="fil0" d="M13539 2804l-602 -768c341,-63 539,-293 539,-646 0,-404 -261,-677 -729,-677l-840 0c-24,0 -44,20 -44,44 0,158 127,285 285,285l566 0c281,0 416,143 416,353 0,210 -131,353 -416,353l-800 0c-24,0 -44,20 -44,44l0 1030c0,16 12,32 32,32l285 0c16,0 32,-12 32,-32l0 -764 329 0 523 681c55,75 143,115 238,115l218 0c16,0 28,-28 12,-48z"/>
   <path class="fil0" d="M8802 713l-1327 0c-24,0 -40,16 -40,40 0,158 131,289 289,289l1077 0c16,0 32,-12 32,-32l0 -269c-4,-16 -16,-28 -32,-28zm0 1810l0 0 -990 0c-16,0 -32,-12 -32,-32l0 -535c0,-16 12,-32 32,-32l915 0c16,0 32,-12 32,-32l0 -269c0,-16 -12,-32 -32,-32l-1248 0c-24,0 -44,20 -44,44l0 1168c0,24 20,44 44,44l1323 0c16,0 32,-12 32,-32l0 -269c-4,-12 -16,-24 -32,-24z"/>
   <path class="fil0" d="M2860 182l-745 1105c-51,75 48,166 119,103l733 -638c20,-16 48,-4 48,24l0 1992c0,28 -36,40 -52,20l-2218 -2654c-71,-87 -174,-135 -289,-135l-79 0c-206,0 -376,170 -376,380l0 2804c0,210 170,380 380,380 131,0 254,-67 325,-182l745 -1105c51,-75 -48,-166 -119,-103l-733 634c-20,16 -48,4 -48,-24l0 -1988c0,-28 36,-40 51,-20l2218 2654c71,87 178,135 289,135l79 0c210,0 380,-170 380,-380l0 -2804c-4,-210 -174,-380 -384,-380 -131,0 -254,67 -325,182z"/>
  </g>
 </g>
</svg>
