<svg width="24" height="24" viewBox="0 0 24 24" fill="none" xmlns="http://www.w3.org/2000/svg">
<circle cx="12.0059" cy="7.25993" r="4.46269" stroke="#33CC99" stroke-width="1.5"/>
<path d="M5.70435 11.2784C4.58946 11.2784 3.68567 9.93039 3.68567 8.26755C3.68567 6.60471 4.58946 5.25671 5.70435 5.25671" stroke="#33CC99" stroke-width="1.5" stroke-linecap="round"/>
<path d="M18.2959 11.2784C19.4309 11.2784 20.3509 9.93039 20.3509 8.26755C20.3509 6.60471 19.4309 5.25671 18.2959 5.25671" stroke="#33CC99" stroke-width="1.5" stroke-linecap="round"/>
<path d="M17.546 18.0374C17.546 19.4718 17.1859 20.3722 16.4503 20.954C15.6684 21.5724 14.3075 21.9605 12.0002 21.9605C9.41853 21.9605 8.08444 21.5644 7.38012 20.9693C6.72168 20.4131 6.45435 19.5394 6.45435 18.0374C6.45435 16.7427 7.02378 15.7996 7.97161 15.1517C8.94884 14.4836 10.3599 14.1143 12.0002 14.1143C13.6404 14.1143 15.0515 14.4836 16.0287 15.1517C16.9766 15.7996 17.546 16.7427 17.546 18.0374Z" stroke="#33CC99" stroke-width="1.5"/>
<path d="M20.1016 20.2397C20.5979 20.2397 21.3424 19.1453 21.3424 17.832C21.3424 16.5187 20.5979 15.4242 19.6052 15.0229" stroke="#33CC99" stroke-width="1.5" stroke-linecap="round"/>
<path d="M3.89867 20.2397C3.40232 20.2397 2.6578 19.1453 2.6578 17.832C2.6578 16.5187 3.40232 15.4242 4.39502 15.0229" stroke="#33CC99" stroke-width="1.5" stroke-linecap="round"/>
</svg>
