<svg width="102" height="65" viewBox="0 0 102 65" fill="none" xmlns="http://www.w3.org/2000/svg">
<path d="M38.9857 0C37.9878 5.28571 35.184 5.95238 32 6.14286V34.8571C35.279 34.8571 38.9857 36.8571 38.9857 41H94.5866C94.5866 34.8571 101.287 34.8571 102 34.8571V6.14286C98.0081 6.14286 94.4915 3.38095 94.5866 0H38.9857Z" fill="#E8E8E8"/>
<path d="M41.9347 2.48486C41.0418 7.12989 38.5331 7.71574 35.6843 7.88313V33.1169C38.6182 33.1169 41.9347 34.8745 41.9347 38.5152H91.6828C91.6828 33.1169 97.6781 33.1169 98.3159 33.1169V7.88313C94.7442 7.88313 91.5978 5.456 91.6828 2.48486H41.9347Z" fill="#33CC99"/>
<ellipse cx="67.3466" cy="20.8474" rx="15.9406" ry="15.9831" fill="#33CC99"/>
<g clip-path="url(#clip0_217_1668)">
<path d="M67.2841 34.8326C74.9218 34.8326 81.1134 28.5713 81.1134 20.8475C81.1134 13.1237 74.9218 6.8623 67.2841 6.8623C59.6464 6.8623 53.4548 13.1237 53.4548 20.8475C53.4548 28.5713 59.6464 34.8326 67.2841 34.8326Z" fill="#33CC99"/>
<path d="M72.8089 19.8987C72.2182 19.8987 71.6622 20.0041 71.141 20.2149L70.1334 18.458C71.1758 17.6147 71.836 16.3146 71.836 14.8387C71.836 12.3088 69.7859 9.95447 67.2841 9.95447C64.7823 9.95447 62.7323 12.2736 62.7323 14.8387C62.7323 16.2794 63.3925 17.5795 64.4349 18.458L63.4272 20.2149C62.906 20.0041 62.3501 19.8987 61.7594 19.8987C59.2576 19.8987 57.2075 21.9719 57.2075 24.5019C57.2075 27.0318 59.2576 29.105 61.7594 29.105C64.0527 29.105 65.929 27.3832 66.2765 25.1695H68.257C68.6045 27.3832 70.4808 29.105 72.7741 29.105C75.2759 29.105 77.326 27.0318 77.326 24.5019C77.3607 21.9719 75.3107 19.8987 72.8089 19.8987ZM64.0874 14.8387C64.0874 13.0467 65.512 11.606 67.2841 11.606C69.0562 11.606 70.4808 13.0467 70.4808 14.8387C70.4808 16.6308 69.0562 18.0715 67.2841 18.0715C65.512 18.0715 64.0874 16.6308 64.0874 14.8387ZM61.7594 27.7346C59.9873 27.7346 58.5626 26.2939 58.5626 24.5019C58.5626 22.7098 59.9873 21.2691 61.7594 21.2691C63.5315 21.2691 64.9561 22.7098 64.9561 24.5019C64.9561 26.2939 63.5315 27.7346 61.7594 27.7346ZM68.2918 23.7991H66.3112C66.1375 22.6395 65.512 21.5854 64.6434 20.8826L65.651 19.1256C66.1722 19.3365 66.7282 19.4419 67.3189 19.4419C67.9096 19.4419 68.4655 19.3365 68.9867 19.1256L69.9944 20.8826C69.0562 21.6205 68.4655 22.6395 68.2918 23.7991ZM72.8089 27.7346C71.0368 27.7346 69.6122 26.2939 69.6122 24.5019C69.6122 22.7098 71.0368 21.2691 72.8089 21.2691C74.581 21.2691 76.0056 22.7098 76.0056 24.5019C76.0056 26.2939 74.5462 27.7346 72.8089 27.7346Z" fill="white"/>
<path d="M61.7593 25.9074C62.5269 25.9074 63.1491 25.2781 63.1491 24.5019C63.1491 23.7256 62.5269 23.0963 61.7593 23.0963C60.9917 23.0963 60.3694 23.7256 60.3694 24.5019C60.3694 25.2781 60.9917 25.9074 61.7593 25.9074Z" fill="white"/>
<path d="M72.8088 25.9074C73.5764 25.9074 74.1987 25.2781 74.1987 24.5019C74.1987 23.7256 73.5764 23.0963 72.8088 23.0963C72.0412 23.0963 71.4189 23.7256 71.4189 24.5019C71.4189 25.2781 72.0412 25.9074 72.8088 25.9074Z" fill="white"/>
<path d="M67.603 16.2056C68.3496 16.0252 68.8102 15.2669 68.6318 14.512C68.4534 13.757 67.7036 13.2912 66.957 13.4716C66.2104 13.652 65.7498 14.4103 65.9282 15.1653C66.1066 15.9202 66.8565 16.386 67.603 16.2056Z" fill="white"/>
</g>
<path d="M22.9857 12C21.9878 17.2857 19.184 17.9524 16 18.1429V46.8571C19.279 46.8571 22.9857 48.8571 22.9857 53H78.5866C78.5866 46.8571 85.2872 46.8571 86 46.8571V18.1429C82.0081 18.1429 78.4915 15.381 78.5866 12H22.9857Z" fill="#E8E8E8"/>
<path d="M25.9347 14.4849C25.0418 19.1299 22.5331 19.7157 19.6843 19.8831V45.1169C22.6182 45.1169 25.9347 46.8745 25.9347 50.5152H75.6828C75.6828 45.1169 81.6781 45.1169 82.3159 45.1169V19.8831C78.7442 19.8831 75.5978 17.456 75.6828 14.4849H25.9347Z" fill="#33CC99"/>
<ellipse cx="51.3466" cy="32.8474" rx="15.9406" ry="15.9831" fill="#33CC99"/>
<g clip-path="url(#clip1_217_1668)">
<path d="M51.2841 46.8326C58.9218 46.8326 65.1134 40.5713 65.1134 32.8475C65.1134 25.1237 58.9218 18.8623 51.2841 18.8623C43.6464 18.8623 37.4548 25.1237 37.4548 32.8475C37.4548 40.5713 43.6464 46.8326 51.2841 46.8326Z" fill="#33CC99"/>
<path d="M56.8089 31.8987C56.2182 31.8987 55.6622 32.0041 55.141 32.2149L54.1334 30.458C55.1758 29.6147 55.836 28.3146 55.836 26.8387C55.836 24.3088 53.7859 21.9545 51.2841 21.9545C48.7823 21.9545 46.7323 24.2736 46.7323 26.8387C46.7323 28.2794 47.3925 29.5795 48.4349 30.458L47.4272 32.2149C46.906 32.0041 46.3501 31.8987 45.7594 31.8987C43.2576 31.8987 41.2075 33.9719 41.2075 36.5019C41.2075 39.0318 43.2576 41.105 45.7594 41.105C48.0527 41.105 49.929 39.3832 50.2765 37.1695H52.257C52.6045 39.3832 54.4808 41.105 56.7741 41.105C59.2759 41.105 61.326 39.0318 61.326 36.5019C61.3607 33.9719 59.3107 31.8987 56.8089 31.8987ZM48.0874 26.8387C48.0874 25.0467 49.512 23.606 51.2841 23.606C53.0562 23.606 54.4808 25.0467 54.4808 26.8387C54.4808 28.6308 53.0562 30.0715 51.2841 30.0715C49.512 30.0715 48.0874 28.6308 48.0874 26.8387ZM45.7594 39.7346C43.9873 39.7346 42.5626 38.2939 42.5626 36.5019C42.5626 34.7098 43.9873 33.2691 45.7594 33.2691C47.5315 33.2691 48.9561 34.7098 48.9561 36.5019C48.9561 38.2939 47.5315 39.7346 45.7594 39.7346ZM52.2918 35.7991H50.3112C50.1375 34.6395 49.512 33.5854 48.6434 32.8826L49.651 31.1256C50.1722 31.3365 50.7282 31.4419 51.3189 31.4419C51.9096 31.4419 52.4655 31.3365 52.9867 31.1256L53.9944 32.8826C53.0562 33.6205 52.4655 34.6395 52.2918 35.7991ZM56.8089 39.7346C55.0368 39.7346 53.6122 38.2939 53.6122 36.5019C53.6122 34.7098 55.0368 33.2691 56.8089 33.2691C58.581 33.2691 60.0056 34.7098 60.0056 36.5019C60.0056 38.2939 58.5462 39.7346 56.8089 39.7346Z" fill="white"/>
<path d="M45.7593 37.9074C46.5269 37.9074 47.1491 37.2781 47.1491 36.5019C47.1491 35.7256 46.5269 35.0963 45.7593 35.0963C44.9917 35.0963 44.3694 35.7256 44.3694 36.5019C44.3694 37.2781 44.9917 37.9074 45.7593 37.9074Z" fill="white"/>
<path d="M56.8088 37.9074C57.5764 37.9074 58.1987 37.2781 58.1987 36.5019C58.1987 35.7256 57.5764 35.0963 56.8088 35.0963C56.0412 35.0963 55.4189 35.7256 55.4189 36.5019C55.4189 37.2781 56.0412 37.9074 56.8088 37.9074Z" fill="white"/>
<path d="M51.603 28.2056C52.3496 28.0252 52.8102 27.2669 52.6318 26.512C52.4534 25.757 51.7036 25.2912 50.957 25.4716C50.2104 25.652 49.7498 26.4103 49.9282 27.1653C50.1066 27.9202 50.8565 28.386 51.603 28.2056Z" fill="white"/>
</g>
<path d="M6.98574 24C5.98778 29.2857 3.18398 29.9524 0 30.1429V58.8571C3.27902 58.8571 6.98574 60.8571 6.98574 65H62.5866C62.5866 58.8571 69.2872 58.8571 70 58.8571V30.1429C66.0081 30.1429 62.4915 27.381 62.5866 24H6.98574Z" fill="#E8E8E8"/>
<path d="M9.93473 26.4849C9.04181 31.1299 6.53315 31.7157 3.68433 31.8831V57.1169C6.61819 57.1169 9.93473 58.8745 9.93473 62.5152H59.6828C59.6828 57.1169 65.6781 57.1169 66.3159 57.1169V31.8831C62.7442 31.8831 59.5978 29.456 59.6828 26.4849H9.93473Z" fill="#33CC99"/>
<ellipse cx="35.3466" cy="44.8474" rx="15.9406" ry="15.9831" fill="#33CC99"/>
<g clip-path="url(#clip2_217_1668)">
<path d="M35.2841 58.8326C42.9218 58.8326 49.1134 52.5713 49.1134 44.8475C49.1134 37.1237 42.9218 30.8623 35.2841 30.8623C27.6464 30.8623 21.4548 37.1237 21.4548 44.8475C21.4548 52.5713 27.6464 58.8326 35.2841 58.8326Z" fill="#33CC99"/>
<path d="M40.8089 43.8987C40.2182 43.8987 39.6622 44.0041 39.141 44.2149L38.1334 42.458C39.1758 41.6147 39.836 40.3146 39.836 38.8387C39.836 36.3088 37.7859 33.9545 35.2841 33.9545C32.7823 33.9545 30.7323 36.2736 30.7323 38.8387C30.7323 40.2794 31.3925 41.5795 32.4349 42.458L31.4272 44.2149C30.906 44.0041 30.3501 43.8987 29.7594 43.8987C27.2576 43.8987 25.2075 45.9719 25.2075 48.5019C25.2075 51.0318 27.2576 53.105 29.7594 53.105C32.0527 53.105 33.929 51.3832 34.2765 49.1695H36.257C36.6045 51.3832 38.4808 53.105 40.7741 53.105C43.2759 53.105 45.326 51.0318 45.326 48.5019C45.3607 45.9719 43.3107 43.8987 40.8089 43.8987ZM32.0874 38.8387C32.0874 37.0467 33.512 35.606 35.2841 35.606C37.0562 35.606 38.4808 37.0467 38.4808 38.8387C38.4808 40.6308 37.0562 42.0715 35.2841 42.0715C33.512 42.0715 32.0874 40.6308 32.0874 38.8387ZM29.7594 51.7346C27.9873 51.7346 26.5626 50.2939 26.5626 48.5019C26.5626 46.7098 27.9873 45.2691 29.7594 45.2691C31.5315 45.2691 32.9561 46.7098 32.9561 48.5019C32.9561 50.2939 31.5315 51.7346 29.7594 51.7346ZM36.2918 47.7991H34.3112C34.1375 46.6395 33.512 45.5854 32.6434 44.8826L33.651 43.1256C34.1722 43.3365 34.7282 43.4419 35.3189 43.4419C35.9096 43.4419 36.4655 43.3365 36.9867 43.1256L37.9944 44.8826C37.0562 45.6205 36.4655 46.6395 36.2918 47.7991ZM40.8089 51.7346C39.0368 51.7346 37.6122 50.2939 37.6122 48.5019C37.6122 46.7098 39.0368 45.2691 40.8089 45.2691C42.581 45.2691 44.0056 46.7098 44.0056 48.5019C44.0056 50.2939 42.5462 51.7346 40.8089 51.7346Z" fill="white"/>
<path d="M29.7593 49.9074C30.5269 49.9074 31.1491 49.2781 31.1491 48.5019C31.1491 47.7256 30.5269 47.0963 29.7593 47.0963C28.9917 47.0963 28.3694 47.7256 28.3694 48.5019C28.3694 49.2781 28.9917 49.9074 29.7593 49.9074Z" fill="white"/>
<path d="M40.8088 49.9074C41.5764 49.9074 42.1987 49.2781 42.1987 48.5019C42.1987 47.7256 41.5764 47.0963 40.8088 47.0963C40.0412 47.0963 39.4189 47.7256 39.4189 48.5019C39.4189 49.2781 40.0412 49.9074 40.8088 49.9074Z" fill="white"/>
<path d="M35.603 40.2056C36.3496 40.0252 36.8102 39.2669 36.6318 38.512C36.4534 37.757 35.7036 37.2912 34.957 37.4716C34.2104 37.652 33.7498 38.4103 33.9282 39.1653C34.1066 39.9202 34.8565 40.386 35.603 40.2056Z" fill="white"/>
</g>
<defs>
<clipPath id="clip0_217_1668">
<rect width="27.6585" height="27.9703" fill="white" transform="translate(53.4548 6.8623)"/>
</clipPath>
<clipPath id="clip1_217_1668">
<rect width="27.6585" height="27.9703" fill="white" transform="translate(37.4548 18.8623)"/>
</clipPath>
<clipPath id="clip2_217_1668">
<rect width="27.6585" height="27.9703" fill="white" transform="translate(21.4548 30.8623)"/>
</clipPath>
</defs>
</svg>
