<svg width="60" height="35" viewBox="0 0 60 35" fill="none" xmlns="http://www.w3.org/2000/svg">
<path d="M5.98778 0C5.13238 4.5122 2.72912 5.0813 0 5.2439V29.7561C2.81059 29.7561 5.98778 31.4634 5.98778 35H53.6456C53.6456 29.7561 59.389 29.7561 60 29.7561V5.2439C56.5784 5.2439 53.5642 2.88618 53.6456 0H5.98778Z" fill="#E8E8E8"/>
<path d="M8.51545 2.12122C7.75009 6.08648 5.59981 6.5866 3.15796 6.72949V28.2705C5.6727 28.2705 8.51545 29.7709 8.51545 32.8788H51.1567C51.1567 28.2705 56.2955 28.2705 56.8422 28.2705V6.72949C53.7808 6.72949 51.0838 4.65756 51.1567 2.12122H8.51545Z" fill="#33CC99"/>
<ellipse cx="30.2969" cy="17.7967" rx="13.6634" ry="13.6441" fill="#33CC99"/>
<g clip-path="url(#clip0_268_4436)">
<path d="M30.2433 29.7353C36.7899 29.7353 42.097 24.3902 42.097 17.7967C42.097 11.2032 36.7899 5.85815 30.2433 5.85815C23.6967 5.85815 18.3896 11.2032 18.3896 17.7967C18.3896 24.3902 23.6967 29.7353 30.2433 29.7353Z" fill="#33CC99"/>
<path d="M34.9788 16.9868C34.4725 16.9868 33.996 17.0768 33.5492 17.2567L32.6855 15.7569C33.579 15.037 34.1449 13.9271 34.1449 12.6673C34.1449 10.5076 32.3877 8.4978 30.2433 8.4978C28.0989 8.4978 26.3417 10.4776 26.3417 12.6673C26.3417 13.8972 26.9076 15.007 27.8011 15.7569L26.9374 17.2567C26.4906 17.0768 26.0141 16.9868 25.5078 16.9868C23.3634 16.9868 21.6062 18.7566 21.6062 20.9163C21.6062 23.076 23.3634 24.8458 25.5078 24.8458C27.4735 24.8458 29.0818 23.376 29.3796 21.4862H31.0772C31.375 23.376 32.9833 24.8458 34.949 24.8458C37.0934 24.8458 38.8506 23.076 38.8506 20.9163C38.8804 18.7566 37.1232 16.9868 34.9788 16.9868ZM27.5032 12.6673C27.5032 11.1375 28.7244 9.90763 30.2433 9.90763C31.7622 9.90763 32.9833 11.1375 32.9833 12.6673C32.9833 14.1971 31.7622 15.427 30.2433 15.427C28.7244 15.427 27.5032 14.1971 27.5032 12.6673ZM25.5078 23.676C23.9888 23.676 22.7677 22.4461 22.7677 20.9163C22.7677 19.3865 23.9888 18.1566 25.5078 18.1566C27.0267 18.1566 28.2478 19.3865 28.2478 20.9163C28.2478 22.4461 27.0267 23.676 25.5078 23.676ZM31.107 20.3164H29.4094C29.2605 19.3265 28.7244 18.4266 27.9798 17.8267L28.8435 16.3269C29.2902 16.5068 29.7668 16.5968 30.2731 16.5968C30.7794 16.5968 31.2559 16.5068 31.7027 16.3269L32.5664 17.8267C31.7622 18.4566 31.2559 19.3265 31.107 20.3164ZM34.9788 23.676C33.4599 23.676 32.2388 22.4461 32.2388 20.9163C32.2388 19.3865 33.4599 18.1566 34.9788 18.1566C36.4977 18.1566 37.7188 19.3865 37.7188 20.9163C37.7188 22.4461 36.468 23.676 34.9788 23.676Z" fill="white"/>
<path d="M25.5077 22.1161C26.1657 22.1161 26.6991 21.5789 26.6991 20.9163C26.6991 20.2536 26.1657 19.7164 25.5077 19.7164C24.8498 19.7164 24.3164 20.2536 24.3164 20.9163C24.3164 21.5789 24.8498 22.1161 25.5077 22.1161Z" fill="white"/>
<path d="M34.9787 22.1161C35.6366 22.1161 36.17 21.5789 36.17 20.9163C36.17 20.2536 35.6366 19.7164 34.9787 19.7164C34.3207 19.7164 33.7874 20.2536 33.7874 20.9163C33.7874 21.5789 34.3207 22.1161 34.9787 22.1161Z" fill="white"/>
<path d="M30.5166 13.8342C31.1565 13.6802 31.5513 13.0328 31.3984 12.3883C31.2455 11.7438 30.6028 11.3462 29.9629 11.5002C29.323 11.6542 28.9282 12.3015 29.0811 12.946C29.234 13.5905 29.8767 13.9882 30.5166 13.8342Z" fill="white"/>
</g>
<defs>
<clipPath id="clip0_268_4436">
<rect width="23.7073" height="23.8771" fill="white" transform="translate(18.3896 5.85815)"/>
</clipPath>
</defs>
</svg>
